name rise38.3101peak57.3503fall81.6963.mot
datacolumns 19
datarows 23
range 10.40330000000000 10.43996800000000
endheader
time	ground_force1_vx	ground_force1_vy	ground_force1_vz	ground_force1_px	ground_force1_py	ground_force1_pz	ground_force2_vx	ground_force2_vy	ground_force2_vz	ground_force2_px	ground_force2_py	ground_force2_pz	ground_torque1_x	ground_torque1_y	ground_torque1_z	ground_torque2_x	ground_torque2_y	ground_torque2_z	
10.40330000000000	-47.63856400000000	810.92178899999999	60.18077900000000	0.13650300000000	0.00000000000000	0.08748200000000	-9.08678800000000	40.15123800000000	8.16986300000000	0.33286300000000	0.00000000000000	-0.09659300000000	0.00000000000000	25.25038700000000	0.00000000000000	0.00000000000000	4.33289900000000	0.00000000000000	
10.40496300000000	-47.65218300000000	808.75869000000000	60.07242000000000	0.13595300000000	0.00000000000000	0.08744200000000	-10.08162700000000	46.90125300000000	9.22831000000000	0.33914000000000	0.00000000000000	-0.09717900000000	0.00000000000000	25.11538500000000	0.00000000000000	0.00000000000000	4.99389600000000	0.00000000000000	
10.40662900000000	-47.67245200000000	806.47062800000003	59.93696700000000	0.13542400000000	0.00000000000000	0.08739600000000	-10.93625000000000	53.69355200000000	10.20494900000000	0.34497200000000	0.00000000000000	-0.09771400000000	0.00000000000000	24.97689800000000	0.00000000000000	0.00000000000000	5.63192500000000	0.00000000000000	
10.40830600000000	-47.70024900000000	804.05740700000001	59.77391800000000	0.13491600000000	0.00000000000000	0.08734600000000	-11.62629700000000	60.43692000000000	11.07820300000000	0.35041400000000	0.00000000000000	-0.09820700000000	0.00000000000000	24.83508400000000	0.00000000000000	0.00000000000000	6.23358000000000	0.00000000000000	
10.40996500000000	-47.73643600000000	801.51889900000003	59.58282900000000	0.13443000000000	0.00000000000000	0.08729000000000	-12.13657400000000	67.06330500000000	11.83343800000000	0.35551500000000	0.00000000000000	-0.09866400000000	0.00000000000000	24.69010000000000	0.00000000000000	0.00000000000000	6.78873900000000	0.00000000000000	
10.41163200000000	-47.78185300000000	798.85503500000004	59.36331500000000	0.13396600000000	0.00000000000000	0.08722800000000	-12.46101500000000	73.52977600000000	12.46309900000000	0.36031100000000	0.00000000000000	-0.09909100000000	0.00000000000000	24.54210200000000	0.00000000000000	0.00000000000000	7.29084800000000	0.00000000000000	
10.41330700000000	-47.83731300000000	796.06580499999995	59.11505300000000	0.13352400000000	0.00000000000000	0.08716100000000	-12.60190500000000	79.81809699999999	12.96624200000000	0.36483300000000	0.00000000000000	-0.09949200000000	0.00000000000000	24.39124500000000	0.00000000000000	0.00000000000000	7.73686600000000	0.00000000000000	
10.41496900000000	-47.90359800000000	793.15124500000002	58.83778400000000	0.13310500000000	0.00000000000000	0.08708900000000	-12.56855300000000	85.93233700000000	13.34761300000000	0.36910800000000	0.00000000000000	-0.09987200000000	0.00000000000000	24.23767800000000	0.00000000000000	0.00000000000000	8.12691900000000	0.00000000000000	
10.41663400000000	-47.98145600000000	790.11143100000004	58.53131400000000	0.13270800000000	0.00000000000000	0.08701000000000	-12.37561600000000	91.89505600000000	13.61640700000000	0.37315500000000	0.00000000000000	-0.10023300000000	0.00000000000000	24.08154700000000	0.00000000000000	0.00000000000000	8.46376900000000	0.00000000000000	
10.41829900000000	-48.07159100000000	786.94647499999996	58.19551400000000	0.13233300000000	0.00000000000000	0.08692500000000	-12.04127700000000	97.74263900000000	13.78488700000000	0.37699400000000	0.00000000000000	-0.10057900000000	0.00000000000000	23.92299500000000	0.00000000000000	0.00000000000000	8.75213200000000	0.00000000000000	
10.41996400000000	-48.17466600000000	783.65651800000001	57.83032200000000	0.13198000000000	0.00000000000000	0.08683500000000	-11.58544800000000	103.52029700000000	13.86698600000000	0.38063900000000	0.00000000000000	-0.10091100000000	0.00000000000000	23.76215800000000	0.00000000000000	0.00000000000000	8.99797100000000	0.00000000000000	
10.42163400000000	-48.29129300000000	780.24171999999999	57.43574600000000	0.13165000000000	0.00000000000000	0.08673800000000	-11.02814800000000	109.27721699999999	13.87701700000000	0.38410300000000	0.00000000000000	-0.10123300000000	0.00000000000000	23.59916500000000	0.00000000000000	0.00000000000000	9.20779200000000	0.00000000000000	
10.42330100000000	-48.42202900000000	776.70225600000003	57.01186000000000	0.13134000000000	0.00000000000000	0.08663500000000	-10.38814200000000	115.06220999999999	13.82857400000000	0.38739700000000	0.00000000000000	-0.10154400000000	0.00000000000000	23.43413900000000	0.00000000000000	0.00000000000000	9.38802400000000	0.00000000000000	
10.42496800000000	-48.56737200000000	773.03831100000002	56.55880500000000	0.13105200000000	0.00000000000000	0.08652600000000	-9.68191900000000	120.92011900000000	13.73368100000000	0.39053000000000	0.00000000000000	-0.10184700000000	0.00000000000000	23.26719600000000	0.00000000000000	0.00000000000000	9.54450200000000	0.00000000000000	
10.42663400000000	-48.72775600000000	769.25007100000005	56.07679400000000	0.13078400000000	0.00000000000000	0.08641100000000	-8.92301500000000	126.88912400000000	13.60219800000000	0.39351200000000	0.00000000000000	-0.10214400000000	0.00000000000000	23.09844600000000	0.00000000000000	0.00000000000000	9.68209600000000	0.00000000000000	
10.42830000000000	-48.90354700000000	765.33771800000000	55.56610500000000	0.13053700000000	0.00000000000000	0.08628900000000	-8.12168500000000	132.99900700000001	13.44150600000000	0.39634900000000	0.00000000000000	-0.10243400000000	0.00000000000000	22.92798700000000	0.00000000000000	0.00000000000000	9.80446800000000	0.00000000000000	
10.42996600000000	-49.09503700000000	761.30142599999999	55.02708300000000	0.13030800000000	0.00000000000000	0.08616100000000	-7.28486900000000	139.27031199999999	13.25642500000000	0.39904600000000	0.00000000000000	-0.10272000000000	0.00000000000000	22.75591200000000	0.00000000000000	0.00000000000000	9.91397300000000	0.00000000000000	
10.43163200000000	-49.30244300000000	757.14135299999998	54.46014200000000	0.13009700000000	0.00000000000000	0.08602700000000	-6.41642400000000	145.71432799999999	13.04934700000000	0.40161000000000	0.00000000000000	-0.10300200000000	0.00000000000000	22.58230400000000	0.00000000000000	0.00000000000000	10.01167400000000	0.00000000000000	
10.43330200000000	-49.52589700000000	752.85763999999995	53.86575900000000	0.12990400000000	0.00000000000000	0.08588700000000	-5.51753600000000	152.33372000000000	12.82051500000000	0.40404600000000	0.00000000000000	-0.10328100000000	0.00000000000000	22.40723800000000	0.00000000000000	0.00000000000000	10.09746100000000	0.00000000000000	
10.43496800000000	-49.76544800000000	748.45040300000005	53.24447600000000	0.12972700000000	0.00000000000000	0.08574100000000	-4.58725900000000	159.12366800000001	12.56842600000000	0.40635800000000	0.00000000000000	-0.10355600000000	0.00000000000000	22.23078000000000	0.00000000000000	0.00000000000000	10.17023300000000	0.00000000000000	
10.43663500000000	-50.02105500000000	743.91973199999995	52.59689900000000	0.12956500000000	0.00000000000000	0.08558800000000	-3.62311800000000	166.07330200000001	12.29027700000000	0.40854900000000	0.00000000000000	-0.10383000000000	0.00000000000000	22.05298700000000	0.00000000000000	0.00000000000000	10.22813400000000	0.00000000000000	
10.43830000000000	-50.29258600000000	739.26568599999996	51.92369300000000	0.12941700000000	0.00000000000000	0.08543000000000	-2.62171300000000	173.16731200000001	11.98244000000000	0.41062300000000	0.00000000000000	-0.10410100000000	0.00000000000000	21.87390700000000	0.00000000000000	0.00000000000000	10.26880000000000	0.00000000000000	
10.43996800000000	-50.57981100000000	734.48829300000000	51.22558300000000	0.12928200000000	0.00000000000000	0.08526600000000	-1.57927800000000	180.38753900000000	11.64090400000000	0.41258400000000	0.00000000000000	-0.10437100000000	0.00000000000000	21.69358100000000	0.00000000000000	0.00000000000000	10.28960400000000	0.00000000000000	
